:SAMPLES-PER-SECOND 30
:FULLY-SPECIFIED
:DEGREES
138
root  -60.5769 40.9032 28.6408 -3.95583 -35.8372 0.654709
RightUpLeg  -8.87591 -7.56194 -2.13114
RightLeg  9.40094 -1.32125 4.42136
RightFoot  4.88641 1.04145 -7.05392
RightToes  -1.74624e-010 0 -3.6325e-017
Spine  6.55482 0.363705 6.65104
Spine1  2.6583 1.51615 -4.17543
HEad  -10.4192 -2.57851 -0.363923
LeftShoulder1  4.7477 -8.51038 -33.4401
LeftArm  -14.1424 21.3658 -14.4898
LeftForeArm  16.1961 -7.64977 -2.94079
LeftHand  -0.244104 0.0205437 5.32207
RightShoulder  3.38162 6.48917 27.8158
RightArm  -15.8401 -13.713 15.9743
RightForeArm  0.759814 8.64207 4.78813
RightHand  -0.872133 2.14684 -13.58
LeftUpLeg  -12.9357 12.8363 -0.204644
LeftLeg  21.4401 5.70123 2.81217
LeftFoot  -7.64012 0.206814 -5.02938
LeftToes  -2.54691e-011 4.12133e-011 -4.68171e-012
139
root  -60.9188 40.9595 29.2396 -3.57573 -36.8482 -0.0575562
RightUpLeg  -7.66206 -7.08224 -1.50962
RightLeg  9.15757 -0.869074 4.27688
RightFoot  4.04008 0.943787 -6.76937
RightToes  -1.74624e-010 0 -3.6325e-017
Spine  5.84592 0.646216 7.50303
Spine1  2.763 1.99929 -5.1667
HEad  -8.37862 -2.84117 0.274782
LeftShoulder1  3.44777 -6.66564 -27.7218
LeftArm  -15.6864 23.5229 -13.6632
LeftForeArm  14.2988 -8.59958 -2.30542
LeftHand  -0.244104 0.0205437 5.32207
RightShoulder  2.81113 5.56237 24.8862
RightArm  -14.7019 -11.9233 12.304
RightForeArm  0.9052 7.22553 4.8651
RightHand  -0.757598 1.64382 -12.6286
LeftUpLeg  -10.5233 12.6362 0.717645
LeftLeg  14.2132 4.8311 1.12775
LeftFoot  -3.71788 0.232061 -3.28662
LeftToes  -2.54691e-011 4.12133e-011 -4.68171e-012
140
root  -61.217 41.0219 29.8296 -2.84471 -37.6493 -1.04132
RightUpLeg  -6.59427 -6.6225 -0.828459
RightLeg  8.75282 -0.461518 4.24508
RightFoot  3.28488 0.840494 -6.36424
RightToes  -1.74624e-010 0 -3.6325e-017
Spine  5.15156 0.76271 8.14938
Spine1  2.10626 2.18872 -5.82789
HEad  -5.50375 -3.25712 0.937877
LeftShoulder1  2.12887 -4.19514 -21.1246
LeftArm  -17.5713 25.7523 -13.5357
LeftForeArm  13.8297 -10.1889 -1.69335
LeftHand  -0.244104 0.0205437 5.32207
RightShoulder  2.29257 4.5902 22.0331
RightArm  -13.3217 -10.1782 8.50972
RightForeArm  1.38455 6.611 5.13217
RightHand  -0.656848 1.19466 -11.7183
LeftUpLeg  -8.72715 10.2418 2.17835
LeftLeg  10.7998 6.98716 -0.407505
LeftFoot  -0.0540499 0.00924664 -0.0586625
LeftToes  -2.54691e-011 4.12133e-011 -4.68171e-012
141
root  -61.5179 41.1134 30.3624 -2.3401 -37.7255 -1.51401
RightUpLeg  -5.57254 -6.34853 -0.577009
RightLeg  8.26571 -0.594825 4.11243
RightFoot  2.55829 0.797182 -6.38637
RightToes  -1.74624e-010 0 -3.6325e-017
Spine  4.44834 0.651019 7.20421
Spine1  1.76165 1.81955 -4.97377
HEad  -4.11791 -3.27697 1.0196
LeftShoulder1  1.0957 -1.42957 -15.3371
LeftArm  -18.6324 27.1561 -13.1389
LeftForeArm  13.5068 -11.8138 -1.52656
LeftHand  -0.244104 0.0205437 5.32207
RightShoulder  1.75677 3.41605 18.8943
RightArm  -12.3774 -8.3119 5.45329
RightForeArm  0.336737 6.79241 5.54843
RightHand  -0.738927 1.58789 -12.3956
LeftUpLeg  -7.44963 8.90423 2.71635
LeftLeg  9.52653 8.28813 -1.07238
LeftFoot  1.37055 -0.257365 2.26928
LeftToes  -2.54691e-011 4.12133e-011 -4.68171e-012
142
root  -61.8266 41.2338 30.831 -2.23973 -37.2597 -1.19942
RightUpLeg  -4.61685 -6.21984 -0.86448
RightLeg  7.63987 -1.15616 3.79377
RightFoot  2.07797 0.78305 -6.52261
RightToes  -1.74624e-010 0 -3.6325e-017
Spine  3.90492 0.485029 5.48518
Spine1  1.21051 1.39558 -4.07234
HEad  -3.11641 -3.59902 1.43786
LeftShoulder1  0.623842 -0.0353105 -10.4388
LeftArm  -18.0015 28.3639 -11.4374
LeftForeArm  13.7267 -12.8035 -1.71182
LeftHand  -0.244104 0.0205437 5.32207
RightShoulder  1.3501 2.42779 16.09
RightArm  -11.7465 -7.69727 2.97677
RightForeArm  -2.35117 7.59608 5.97692
RightHand  -0.942418 2.3843 -14.2323
LeftUpLeg  -6.11805 7.36542 2.6465
LeftLeg  8.17245 9.52252 -1.59912
LeftFoot  1.19317 -0.317134 2.82087
LeftToes  -2.54691e-011 4.12133e-011 -4.68171e-012
